<?xml version="1.0" encoding="UTF-8" standalone="no"?>
<!-- Created with Inkscape (http://www.inkscape.org/) -->

<svg
   width="148.47536mm"
   height="46.817501mm"
   viewBox="0 0 148.47536 46.817501"
   version="1.1"
   id="svg1"
   xml:space="preserve"
   xmlns:inkscape="http://www.inkscape.org/namespaces/inkscape"
   xmlns:sodipodi="http://sodipodi.sourceforge.net/DTD/sodipodi-0.dtd"
   xmlns="http://www.w3.org/2000/svg"
   xmlns:svg="http://www.w3.org/2000/svg"><sodipodi:namedview
     id="namedview1"
     pagecolor="#ffffff"
     bordercolor="#000000"
     borderopacity="0.25"
     inkscape:showpageshadow="2"
     inkscape:pageopacity="0.0"
     inkscape:pagecheckerboard="0"
     inkscape:deskcolor="#d1d1d1"
     inkscape:document-units="mm" /><defs
     id="defs1" /><g
     inkscape:label="Capa 1"
     inkscape:groupmode="layer"
     id="layer1"
     transform="translate(-32.425687,-125.56643)"><path
       style="fill:#ffffff"
       d="m 134.48871,172.10829 -0.7276,-0.27556 v -0.38413 -0.38414 l 0.51177,0.27389 c 1.09383,0.5854 2.66323,0.18907 2.66323,-0.67256 v -0.31146 l -1.12759,0.1271 -1.1276,0.12709 -0.61865,-0.50095 -0.61866,-0.50096 v -1.03707 -1.03707 l 0.57966,-0.46938 0.57966,-0.46938 1.588,0.0438 1.58799,0.0438 -0.0907,2.32406 -0.0907,2.32405 -0.40042,0.40013 c -0.22023,0.22007 -0.75601,0.45733 -1.19063,0.52725 l -0.7902,0.12713 z m 2.03162,-2.49932 c 1.3359,-1.33589 -0.60905,-3.32531 -2.01078,-2.05676 l -0.48386,0.43788 v 0.60156 c 0,0.77828 0.66492,1.4331 1.45521,1.4331 0.34301,0 0.81076,-0.1871 1.03943,-0.41578 z m -102.677263,0.94717 c -0.31186,-0.12585 -0.75834,-0.50198 -0.99219,-0.83585 l -0.42519,-0.60704 v -1.1521 -1.15211 l 0.7734,-0.7734 0.7734,-0.77339 h 1.16041 1.1604 l 0.51318,0.37524 c 0.6453,0.47186 0.34696,0.82471 -0.37198,0.43994 -0.29394,-0.15731 -0.90514,-0.28602 -1.35821,-0.28602 h -0.82378 l -0.64883,0.7001 -0.64882,0.70009 v 0.71943 0.71944 l 0.53239,0.67682 0.53239,0.67683 0.80128,0.17599 0.80128,0.17599 0.63691,-0.41732 0.63691,-0.41732 0.17258,0.27925 0.17258,0.27924 -0.48951,0.37086 -0.48952,0.37086 -0.92604,-0.008 c -0.50932,-0.005 -1.18119,-0.11132 -1.49304,-0.23717 z m 4.71021,-0.16122 c -0.3326,-0.23296 -0.71164,-0.70476 -0.84231,-1.04843 l -0.23757,-0.62486 0.2821,-0.80924 c 0.31791,-0.91195 0.92518,-1.32723 1.94087,-1.32723 h 0.69088 l 0.64943,0.64944 0.64943,0.64943 v 0.54119 0.54119 h -1.71979 -1.71979 v 0.25849 c 0,0.14216 0.30967,0.46139 0.68816,0.70938 l 0.68816,0.4509 0.81575,-0.30791 c 0.97948,-0.36971 1.27201,-0.1949 0.56674,0.33867 -0.67522,0.51084 -1.70534,0.50201 -2.45206,-0.021 z m 2.33908,-2.34524 c 0,-0.41967 -0.78228,-0.93535 -1.41892,-0.93535 -0.43774,0 -1.22691,0.69289 -1.22691,1.07723 v 0.24569 h 1.32291 1.32292 z m 1.5875,0.69951 v -2.0693 l 1.57526,-0.0434 1.57526,-0.0434 0.40912,0.58409 0.40911,0.58409 v 1.52863 1.52863 h -0.39688 -0.39687 v -1.71475 -1.71475 l -0.63681,-0.15984 -0.63682,-0.15983 -0.55381,0.29639 -0.55381,0.29639 v 1.5782 1.57819 h -0.39688 -0.39687 z m 5.62054,1.76318 -0.32887,-0.32887 v -1.53459 -1.53458 h -0.39688 c -0.21828,0 -0.39687,-0.11906 -0.39687,-0.26458 0,-0.14552 0.17859,-0.26459 0.39687,-0.26459 h 0.39688 v -0.39687 -0.39688 h 0.39687 0.39688 v 0.39688 0.39687 h 0.52916 c 0.29104,0 0.52917,0.11907 0.52917,0.26459 0,0.14552 -0.24407,0.26458 -0.54237,0.26458 h -0.54237 l 0.0793,1.52135 0.0794,1.52136 0.61764,-0.067 0.61764,-0.067 -0.10888,0.33157 c -0.0599,0.18236 -0.39819,0.36645 -0.75179,0.40908 l -0.64291,0.0775 z m 2.58154,-1.77446 v -2.08059 h 1.05834 c 1.21172,0 1.35211,0.23822 0.39687,0.67345 l -0.66146,0.30138 v 1.59317 1.59318 h -0.39687 -0.39688 z m 3.29527,1.43115 -0.64943,-0.64943 v -0.89194 -0.89195 l 0.61236,-0.57529 0.61237,-0.57529 h 0.85487 0.85487 l 0.64943,0.64944 0.64943,0.64943 v 0.55433 c 0,1.38104 -0.95816,2.38014 -2.28262,2.38014 h -0.65185 z m 2.20211,-0.29161 0.58804,-0.41188 v -0.75984 -0.75985 l -0.41577,-0.41578 c -0.22868,-0.22867 -0.69818,-0.41577 -1.04333,-0.41577 h -0.62756 l -0.41188,0.58804 c -1.0665,1.52265 0.42221,3.21753 1.9105,2.17508 z m 4.41247,0.29161 -0.64943,-0.64943 v -0.8178 -0.8178 l 0.64943,-0.64943 0.64943,-0.64944 h 0.88515 0.88516 l 0.3175,0.3175 0.3175,0.3175 v -1.11125 -1.11125 h 0.26458 0.26458 v 2.91042 2.91042 h -0.26458 c -0.14552,0 -0.26458,-0.12325 -0.26458,-0.2739 v -0.27389 l -0.51178,0.27389 c -0.28147,0.15065 -0.82266,0.2739 -1.20265,0.2739 h -0.69088 z m 2.52557,-0.4089 c 0.63569,-0.63569 0.67164,-1.26635 0.11729,-2.05779 l -0.41188,-0.58804 h -0.62756 c -0.34515,0 -0.81465,0.1871 -1.04333,0.41577 l -0.41577,0.41578 v 0.75985 0.75984 l 0.58804,0.41188 c 0.77716,0.54435 1.15638,0.51955 1.79321,-0.11729 z m 2.7661,0.4089 -0.64943,-0.64943 v -0.89194 -0.89195 l 0.61236,-0.57529 0.61237,-0.57529 h 0.79672 0.79672 l 0.57529,0.61237 0.57529,0.61236 v 0.57826 0.57826 h -1.7291 -1.7291 l 0.28152,0.52605 c 0.15485,0.28932 0.56466,0.5971 0.91071,0.68395 l 0.62918,0.15792 0.57647,-0.30852 c 0.31706,-0.16969 0.65538,-0.22961 0.75183,-0.13316 0.2937,0.2937 -0.80298,0.92585 -1.60619,0.92585 h -0.75521 z m 2.46137,-2.32713 -0.39332,-0.59531 -0.58681,-0.0874 -0.58681,-0.0874 -0.50735,0.45914 c -0.27904,0.25253 -0.50735,0.55975 -0.50735,0.68272 v 0.22358 h 1.48748 1.48748 z m 4.03295,0.19844 v -2.77812 h 1.85208 1.85208 v 0.26458 0.26458 h -1.5875 -1.5875 v 0.92604 0.92605 h 1.45521 1.45521 v 0.26458 0.26458 h -1.45521 -1.45521 v 1.05834 1.05833 h 1.73541 1.73541 l -0.16353,0.26458 -0.16352,0.26459 h -1.83647 -1.83646 z m 4.69079,2.48924 c -0.25773,-0.15004 -0.40604,-0.37401 -0.32959,-0.49771 l 0.139,-0.22491 0.79934,0.30172 0.79933,0.30171 0.41058,-0.25898 c 0.68361,-0.43121 0.47751,-0.76785 -0.72975,-1.19199 l -1.1495,-0.40384 -0.0795,-0.67714 -0.0795,-0.67714 0.39179,-0.32516 0.39179,-0.32515 0.9902,0.0832 0.9902,0.0832 0.0944,0.288 0.0944,0.288 -1.13229,-0.0234 -1.13228,-0.0234 v 0.36804 c 0,0.40172 0.37247,0.63568 1.58493,0.99556 l 0.79118,0.23484 0.0919,0.47724 0.0919,0.47724 -0.46107,0.50948 -0.46108,0.50948 -0.81889,-0.008 c -0.45038,-0.004 -1.02975,-0.1308 -1.28747,-0.28084 z m 4.32883,0.0502 -0.37309,-0.24175 -0.12536,-1.5457 -0.12535,-1.54571 -0.29531,-0.21858 -0.29531,-0.21858 0.33073,-0.1342 c 0.18191,-0.0738 0.33073,-0.30287 0.33073,-0.50902 v -0.37483 h 0.39688 0.39687 v 0.39688 0.39687 h 0.66146 0.66146 v 0.26459 0.26458 h -0.67466 -0.67466 l 0.0794,1.52135 0.0794,1.52136 0.60257,-0.0218 0.60258,-0.0218 -0.0941,0.28637 c -0.12405,0.37737 -1.01308,0.48516 -1.48411,0.17995 z m 2.62204,-1.87795 v -2.11667 h 0.26459 0.26458 v 2.11667 2.11667 h -0.26458 -0.26459 z m 1.85209,0 v -2.11667 h 0.26458 c 0.14552,0 0.26458,0.12325 0.26458,0.2739 v 0.27389 l 0.51178,-0.27389 c 0.73215,-0.39184 1.76762,-0.33795 2.22117,0.1156 l 0.3895,0.3895 0.32326,-0.3895 0.32325,-0.3895 h 0.87865 0.87864 l 0.41188,0.58804 0.41187,0.58804 v 1.52863 1.52863 h -0.26458 -0.26458 v -1.1734 c 0,-0.64537 -0.11612,-1.47881 -0.25804,-1.85209 l -0.25803,-0.67868 h -0.65301 -0.653 l -0.41188,0.58804 -0.41188,0.58804 v 1.26404 1.26405 h -0.26458 -0.26458 v -1.34031 c 0,-0.73718 -0.12326,-1.57061 -0.2739,-1.85209 l -0.27389,-0.51177 h -0.59923 c -0.32958,0 -0.74211,0.14287 -0.91673,0.3175 l -0.3175,0.3175 v 1.53458 1.53459 h -0.39688 -0.39687 z m 8.79012,1.70479 -0.58804,-0.41188 v -1.70479 -1.70479 h 0.26458 0.26459 v 1.43631 1.43631 l 0.41577,0.41578 c 0.55741,0.55741 1.06385,0.52365 1.70089,-0.1134 l 0.52917,-0.52916 v -1.32295 -1.32292 h 0.26458 0.26459 v 2.11667 2.11667 h -0.26459 c -0.14552,0 -0.26458,-0.12325 -0.26458,-0.2739 v -0.27389 l -0.51177,0.27389 c -0.72028,0.38548 -1.39157,0.34085 -2.07519,-0.13798 z m 4.43904,-2.49857 v -2.91042 h 0.39688 0.39687 v 2.91042 2.91042 h -0.39687 -0.39688 z m 2.255413,2.55098 -0.44872,-0.32812 0.0888,-0.7807 0.0888,-0.7807 1.25677,-0.0806 1.25677,-0.0806 v -0.52297 -0.52297 l -0.43589,-0.16727 -0.43589,-0.16727 -0.75359,0.28445 -0.75359,0.28445 -0.14085,-0.2279 c -0.36984,-0.59841 1.9625,-1.04432 2.77486,-0.53051 l 0.38735,0.24499 0.10295,1.82187 0.10294,1.82187 -1.32104,0.0301 -1.32103,0.0301 z m 1.92501,-0.48723 c 0.17462,-0.17463 0.3175,-0.47228 0.3175,-0.66146 v -0.34396 h -0.93435 -0.93434 l -0.16254,0.42358 -0.16255,0.42358 0.36929,0.23383 c 0.51849,0.32831 1.13397,0.29745 1.50699,-0.0756 z m 2.9404,0.50752 c -0.56709,-0.4354 -1.0354,-1.35661 -1.0354,-2.03674 v -0.55858 l 0.64943,-0.64943 0.64943,-0.64944 h 0.90567 0.90567 l 0.33469,0.40327 c 0.40586,0.48904 0.11417,0.88037 -0.32722,0.43899 -0.44132,-0.44133 -1.41662,-0.38884 -1.90815,0.10268 l -0.41577,0.41578 v 0.76875 0.76875 l 0.6723,0.44051 0.67229,0.4405 0.68481,-0.31202 c 0.80838,-0.36832 1.09145,-0.20312 0.62174,0.36286 l -0.33469,0.40327 -0.82749,-0.008 c -0.45513,-0.005 -1.01641,-0.15345 -1.24731,-0.33073 z m 3.7271,-1.77752 v -2.11667 h 0.26458 0.26459 v 2.11667 2.11667 h -0.26459 -0.26458 z m 2.28464,1.5683 -0.69714,-0.54837 v -0.99301 -0.99301 l 0.61236,-0.57529 0.61237,-0.57529 h 0.72794 c 1.05215,0 1.65667,0.40564 1.97794,1.32723 l 0.2821,0.80924 -0.23757,0.62486 c -0.5366,1.41135 -2.09849,1.85144 -3.278,0.92364 z m 2.1544,-0.39268 0.58804,-0.41188 v -0.69176 -0.69177 l -0.43788,-0.48386 c -0.54455,-0.60172 -1.35391,-0.62043 -1.98868,-0.046 l -0.48385,0.43788 v 0.62046 0.62045 l 0.52916,0.52916 c 0.63683,0.63684 1.01605,0.66164 1.79321,0.11729 z m 2.17554,-1.11934 v -2.06039 l 1.64489,0.01 1.64489,0.01 0.33559,0.66146 0.33558,0.66146 0.004,1.38906 0.004,1.38907 h -0.38425 -0.38425 l -0.0788,-1.62614 -0.0788,-1.62613 -0.44247,-0.27778 -0.44248,-0.27778 -0.682,0.31074 -0.68201,0.31074 v 1.59317 1.59318 h -0.39687 -0.39688 z m 8.14259,1.64795 c -0.93767,-0.50885 -1.26342,-1.15368 -1.26342,-2.50094 v -1.09608 l 0.7734,-0.7734 0.77339,-0.77339 h 1.16041 1.16041 l 0.51317,0.37524 c 0.64531,0.47186 0.34696,0.82471 -0.37198,0.43994 -2.21819,-1.18714 -4.47566,1.2868 -2.94724,3.22986 l 0.53239,0.67683 0.80128,0.17599 0.80127,0.17599 0.63691,-0.41732 0.63691,-0.41732 0.18651,0.30178 0.18651,0.30178 -0.48786,0.35674 -0.48787,0.35674 -0.94162,-0.0106 c -0.51789,-0.006 -1.26605,-0.18665 -1.66257,-0.40184 z m 4.72538,-0.13593 -0.69713,-0.54837 v -1.02883 -1.02882 l 0.57905,-0.53947 0.57906,-0.53948 h 0.87615 0.87615 l 0.52917,0.52917 0.52917,0.52917 v 1.03913 1.03913 l -0.69714,0.54837 c -0.38343,0.3016 -0.96269,0.54837 -1.28724,0.54837 -0.32455,0 -0.90381,-0.24677 -1.28724,-0.54837 z m 2.15441,-0.39268 0.58804,-0.41188 v -0.69176 -0.69177 l -0.43788,-0.48386 c -0.54456,-0.60172 -1.35391,-0.62043 -1.98868,-0.046 l -0.48386,0.43788 v 0.73774 0.73774 l 0.58804,0.41188 c 0.32342,0.22653 0.71365,0.41188 0.86717,0.41188 0.15352,0 0.54375,-0.18535 0.86717,-0.41188 z m 7.46721,-1.17562 v -2.11667 h 0.26458 c 0.14552,0 0.26458,0.14288 0.26458,0.3175 v 0.3175 l 0.3175,-0.3175 c 0.17463,-0.17462 0.7019,-0.3175 1.17173,-0.3175 h 0.85422 l 0.41578,0.41578 0.41577,0.41577 v 1.70089 1.7009 h -0.26458 -0.26458 v -1.53459 -1.53458 l -0.3175,-0.3175 c -0.17463,-0.17463 -0.5846,-0.3175 -0.91104,-0.3175 h -0.59354 l -0.41188,0.58804 -0.41188,0.58804 v 1.26404 1.26405 h -0.26458 -0.26458 z m 5.02708,0 v -2.11667 h 0.39687 0.39688 v 2.11667 2.11667 h -0.39688 -0.39687 z m 2.39904,1.62075 c -0.1553,-0.2902 -0.28237,-1.13077 -0.28237,-1.86794 v -1.34031 h -0.39688 c -0.21828,0 -0.39687,-0.11906 -0.39687,-0.26458 0,-0.14552 0.17859,-0.26459 0.39687,-0.26459 h 0.39688 v -0.39687 -0.39688 h 0.39687 0.39688 v 0.39688 0.39687 h 0.52916 c 0.29104,0 0.52917,0.11907 0.52917,0.26459 0,0.14552 -0.24407,0.26458 -0.54237,0.26458 h -0.54237 l 0.0794,1.52135 0.0794,1.52136 0.61764,-0.067 0.61764,-0.067 -0.10888,0.33157 c -0.0599,0.18236 -0.41911,0.36847 -0.79828,0.41357 l -0.68941,0.082 z m 2.62804,-1.62075 v -2.11667 h 0.39688 0.39687 v 2.11667 2.11667 h -0.39687 -0.39688 z m 2.48683,0.59531 c -0.37483,-0.83674 -0.7871,-1.78924 -0.91616,-2.11666 l -0.23465,-0.59532 h 0.3505 0.35051 l 0.63055,1.5875 c 0.77294,1.94597 0.75377,1.94597 1.56576,0 l 0.66145,-1.58522 0.33073,-10e-4 c 0.43809,-0.002 0.46149,-0.0896 -0.58863,2.21479 -1.10239,2.41904 -1.2712,2.45799 -2.15006,0.49605 z m 3.6043,1.13137 -0.30853,-0.37176 0.0853,-0.74361 0.0853,-0.7436 1.27318,-0.0813 1.27319,-0.0813 -0.0826,-0.58014 -0.0826,-0.58015 -0.74361,-0.0853 -0.7436,-0.0853 -0.33907,0.28141 c -0.4497,0.37321 -0.76373,0.0355 -0.38799,-0.41726 l 0.29469,-0.35508 h 1.01093 1.01093 l 0.41188,0.58804 0.41188,0.58804 v 1.48188 1.48188 l -1.43038,0.0376 -1.43037,0.0376 z m 2.05804,-0.45668 c 0.17462,-0.17463 0.3175,-0.47228 0.3175,-0.66146 v -0.34396 h -0.93435 -0.93434 l -0.16254,0.42358 -0.16255,0.42358 0.36929,0.23383 c 0.51849,0.32831 1.13397,0.29745 1.50699,-0.0756 z m 4.61698,0.52374 c -0.32742,-0.15791 -0.59531,-0.44558 -0.59531,-0.63927 v -0.35216 l 0.89812,0.42829 0.89812,0.42828 0.66019,-0.1657 c 0.36311,-0.0911 0.73492,-0.36041 0.82624,-0.59839 l 0.16604,-0.43269 -0.28743,-0.34634 c -0.15809,-0.19048 -0.66616,-0.4252 -1.12905,-0.5216 -0.46288,-0.0964 -1.1095,-0.34492 -1.43692,-0.55227 l -0.59531,-0.37701 v -0.61435 -0.61435 l 0.50113,-0.45352 0.50114,-0.45353 1.26412,0.0818 1.26412,0.0818 0.0993,0.30191 0.0993,0.30192 -1.40151,-0.0373 -1.4015,-0.0373 -0.0815,0.70438 -0.0815,0.70437 1.44187,0.41916 1.44187,0.41917 0.16096,0.41945 c 0.0885,0.23071 0.16097,0.6411 0.16097,0.91199 v 0.49252 l -0.58804,0.41188 -0.58804,0.41188 -0.80103,-0.0179 c -0.44056,-0.01 -1.06891,-0.14711 -1.39633,-0.30502 z m 4.16719,-0.074 v -0.39687 h 0.39687 0.39688 v 0.39687 0.39688 h -0.39688 -0.39687 z m 2.01626,-1.12448 c 0.37767,-0.83674 0.92783,-2.0869 1.22257,-2.77812 l 0.53588,-1.25677 h 0.36382 0.36382 l 1.03667,2.24387 c 0.57017,1.23413 1.11298,2.48429 1.20624,2.77813 l 0.16956,0.53425 h -0.27562 c -0.15159,0 -0.46032,-0.35719 -0.68608,-0.79375 l -0.41046,-0.79375 h -1.41632 -1.41631 l -0.32878,0.79375 -0.32879,0.79375 h -0.36144 -0.36144 z m 3.26345,-0.79375 c -0.007,-0.10914 -0.27447,-0.69312 -0.59532,-1.29774 l -0.58335,-1.0993 -0.57845,1.29774 -0.57845,1.29774 h 1.17376 c 0.64557,0 1.16838,-0.0893 1.16181,-0.19844 z m 2.30501,2.13872 c -0.30444,-0.30444 -0.19268,-0.61736 0.22048,-0.61736 h 0.39688 v 0.39687 c 0,0.41317 -0.31292,0.52493 -0.61736,0.22049 z m 2.46944,-0.0123 c -0.63091,-0.23357 -1.06392,-0.64654 -0.92077,-0.87815 l 0.13173,-0.21315 0.82866,0.41339 0.82867,0.41339 0.69033,-0.24173 0.69034,-0.24173 0.081,-0.56299 0.081,-0.56298 -1.53622,-0.5104 -1.53622,-0.5104 -0.087,-0.89399 -0.087,-0.89399 0.46827,-0.34241 0.46827,-0.3424 h 0.98613 c 1.11167,0 1.82315,0.21268 1.82315,0.545 v 0.22382 l -1.26557,-0.14989 -1.26557,-0.14989 -0.35153,0.42357 -0.35153,0.42356 0.15108,0.39372 0.15108,0.39371 1.21878,0.30689 1.21878,0.30689 0.38656,0.58997 0.38656,0.58997 -0.25131,0.661 -0.25132,0.66101 -0.61561,0.16485 c -0.72587,0.19437 -1.51806,0.188 -2.07082,-0.0166 z m 3.96875,-0.18612 v -0.41892 h 0.41893 0.41892 l -0.10473,0.31419 c -0.0576,0.17281 -0.24612,0.36132 -0.41893,0.41892 l -0.31419,0.10473 z m -66.54271,-4.91684 c 0.45406,-0.50173 1.19063,-0.72438 1.19063,-0.3599 0,0.26825 -0.88884,0.8714 -1.29778,0.88065 l -0.37174,0.008 z m -29.765623,-0.13229 v -0.39688 h 0.39687 0.39688 v 0.39688 0.39687 h -0.39688 -0.39687 z m 25.929173,0 v -0.39688 h 0.39687 0.39688 v 0.39688 0.39687 h -0.39688 -0.39687 z m 34.39583,0 v -0.39688 h 0.39687 0.39688 v 0.39688 0.39687 h -0.39688 -0.39687 z m 5.02708,0 v -0.39688 h 0.39688 0.39687 v 0.39688 0.39687 h -0.39687 -0.39688 z m -61.647913,-7.80521 -2.77642,-1.32292 h -4.81648 -4.81647 l -1.40209,-0.29024 c -0.77115,-0.15963 -2.29505,-0.71326 -3.38646,-1.23029 l -1.98438,-0.94005 -1.85845,-1.87856 -1.85845,-1.87857 -0.85692,-1.78734 c -0.47131,-0.98303 -1.03223,-2.53085 -1.2465,-3.43958 l -0.38956,-1.65224 v -2.38125 -2.38125 l 0.39896,-1.69251 c 0.21943,-0.93088 0.81826,-2.49045 1.33074,-3.4657 l 0.93179,-1.7732 1.50961,-1.50986 1.50962,-1.50987 1.82148,-0.91141 1.82149,-0.91141 h 0.78466 0.78466 l 0.89958,0.89958 0.89959,0.89959 v 0.96989 c 0,1.42147 -0.34021,1.85974 -2.35877,3.03864 -2.09145,1.22147 -3.00154,2.19558 -3.96738,4.24647 l -0.68531,1.4552 8e-5,2.91042 9e-5,2.91042 0.6211,1.37346 0.6211,1.37347 1.49548,1.42471 1.49548,1.4247 1.32292,0.50912 1.32291,0.50912 h 5.68855 5.68854 l 1.45521,-0.68717 1.4552,-0.68717 1.15058,-1.1238 1.15058,-1.1238 0.65963,-1.44081 c 0.36279,-0.79245 0.75319,-2.12064 0.86756,-2.95153 l 0.20794,-1.51072 -0.21865,-1.56759 -0.21864,-1.56758 -0.79181,-1.60742 -0.79181,-1.60741 -0.8754,-0.82761 c -0.48146,-0.45518 -1.53024,-1.18502 -2.3306,-1.62186 l -1.45521,-0.79426 -0.34109,-0.62709 -0.3411,-0.6271 0.12632,-1.05833 0.12632,-1.05833 0.81426,-0.72761 0.81426,-0.7276 h 0.75403 0.75403 l 1.82855,0.91479 1.82855,0.91478 1.23416,1.18253 c 1.60214,1.53513 2.95993,3.602 3.67016,5.58686 l 0.56805,1.5875 0.13333,2.95073 0.13332,2.95074 -0.44476,1.99913 -0.44476,1.99912 -0.8209,1.64277 -0.8209,1.64276 -1.80935,1.90478 -1.80935,1.90477 v 2.01979 2.01978 l -0.52917,0.52917 c -0.75513,0.75513 -1.13033,0.68478 -4.23333,-0.79375 z m 32.940623,-1.03527 c -1.00728,-0.42865 -1.43191,-1.25841 -5.69871,-11.13556 -2.35737,-5.45703 -4.31342,-9.95341 -4.34677,-9.99195 -0.0334,-0.0385 -1.26504,4.36677 -2.73708,9.78958 l -2.67644,9.85966 -0.68577,0.59531 -0.68578,0.59531 h -1.00494 -1.00495 l -0.68939,-0.6389 c -0.37917,-0.3514 -0.76211,-0.92865 -0.85099,-1.28277 l -0.161603,-0.64386 3.588993,-13.14729 c 4.32423,-15.84061 3.95746,-14.97884 6.37511,-14.97884 h 1.15235 l 0.70176,0.7276 0.70176,0.72761 4.602,10.55674 c 2.5311,5.80622 4.63803,10.59278 4.68205,10.6368 0.044,0.044 2.15839,-4.70651 4.69859,-10.55675 l 4.61854,-10.63679 0.70955,-0.72761 0.70956,-0.7276 h 1.18745 1.18746 l 0.63497,0.75462 0.63498,0.75462 3.48959,12.82651 3.48959,12.82651 v 0.9562 0.9562 l -0.59532,0.68514 -0.59531,0.68515 -0.98706,0.15714 -0.98707,0.15715 -0.68868,-0.45124 c -0.94852,-0.6215 -1.05992,-0.94613 -3.84038,-11.19186 -2.94365,-10.84707 -1.93278,-10.95476 -6.99056,0.74476 l -4.23333,9.79244 -0.66146,0.63075 -0.66146,0.63074 -0.92604,0.14484 -0.92604,0.14483 z m -86.671393,-1.06104 -0.7734,-0.7734 v -13.66675 -13.66675 l 0.7734,-0.77339 0.77339,-0.7734 h 11.33857 11.33856 l 0.56779,0.3977 0.56779,0.39769 0.30566,0.92614 0.30565,0.92614 -0.16684,0.7596 c -0.0918,0.41779 -0.46777,1.04245 -0.83558,1.38815 l -0.66874,0.62854 -9.50399,0.0757 -9.50399,0.0757 v 11.65248 11.65249 l -0.7734,0.7734 -0.7734,0.77339 h -1.09904 -1.09904 z m 114.783363,0.4932 c -1.84938,-1.09947 -1.55499,-4.05305 0.48911,-4.90713 l 0.88297,-0.36893 h 10.79439 10.7944 l 0.92191,-0.48546 0.92192,-0.48545 0.46261,-0.90361 0.46261,-0.9036 4.1e-4,-1.08535 4.1e-4,-1.08536 -0.60519,-0.89902 c -0.33286,-0.49446 -0.95793,-1.07599 -1.38906,-1.29229 l -0.78388,-0.39327 -9.26041,-0.1359 -9.26042,-0.1359 -1.50326,-0.73821 -1.50326,-0.73821 -0.85123,-0.9695 c -0.46819,-0.53323 -1.15596,-1.62979 -1.5284,-2.43679 l -0.67716,-1.46729 -0.007,-1.98437 -0.007,-1.98438 0.46811,-1.35183 0.46811,-1.35183 0.92825,-1.08445 0.92825,-1.08445 1.76863,-0.87101 1.76864,-0.87101 11.59155,-0.0767 11.59154,-0.0767 0.78392,0.78392 0.78393,0.78392 v 1.07452 1.07451 l -0.77171,0.86407 -0.77171,0.86407 -10.93611,0.13229 -10.9361,0.13229 -0.59539,0.39442 c -0.79884,0.52921 -1.3892,1.84142 -1.388,3.08515 l 9.9e-4,1.01835 0.51402,0.84301 c 0.28271,0.46365 0.78828,0.99943 1.12349,1.19062 l 0.60947,0.34762 9.26042,0.14744 9.26042,0.14743 1.22592,0.46224 c 0.67426,0.25423 1.7088,0.87556 2.29898,1.38073 l 1.07305,0.91849 0.73421,1.50066 0.7342,1.50067 0.01,2.52742 0.01,2.52742 -0.48167,1.38119 -0.48166,1.38118 -1.16419,1.29486 -1.16419,1.29486 -1.39685,0.63125 -1.39685,0.63124 -12.17084,0.0637 -12.17083,0.0637 z M 41.950687,141.31745 v -2.51354 h 6.5751 6.57511 l 0.84127,0.29327 0.84127,0.29327 0.38883,0.75193 c 0.21386,0.41356 0.38884,0.94234 0.38884,1.17507 0,0.23274 -0.17498,0.76152 -0.38884,1.17508 l -0.38883,0.75193 -0.84127,0.29327 -0.84127,0.29327 h -6.57511 -6.5751 z m 37.43854,2.26342 c -0.29104,-0.11912 -0.76729,-0.48134 -1.05833,-0.80494 l -0.52917,-0.58835 v -7.53569 -7.53569 l 0.74236,-0.63843 0.74236,-0.63844 h 0.93164 0.93164 l 0.7734,0.7734 0.7734,0.77339 v 7.17725 7.17724 l -0.38884,0.75192 -0.38883,0.75193 -0.84128,0.29327 c -0.9604,0.3348 -0.97486,0.33517 -1.68835,0.0431 z"
       id="path1"
       inkscape:export-filename="logoFoms.png"
       inkscape:export-xdpi="96"
       inkscape:export-ydpi="96" /><circle
       id="path2"
       style="fill:#1c4087;stroke:#000000;stroke-width:0.264583"
       cx="103.84161"
       cy="136.06833"
       r="0.023847762" /></g></svg>
